<svg fill="none" height="326" viewBox="0 0 372 326" width="372" xmlns="http://www.w3.org/2000/svg" xmlns:xlink="http://www.w3.org/1999/xlink"><filter id="a" color-interpolation-filters="sRGB" filterUnits="userSpaceOnUse" height="355.362" width="209.857" x="140.217" y="69.7121"><feFlood flood-opacity="0" result="BackgroundImageFix"/><feColorMatrix in="SourceAlpha" result="hardAlpha" type="matrix" values="0 0 0 0 0 0 0 0 0 0 0 0 0 0 0 0 0 0 127 0"/><feMorphology in="SourceAlpha" operator="dilate" radius="1" result="effect1_dropShadow_3504_3540"/><feOffset/><feColorMatrix type="matrix" values="0 0 0 0 0.835294 0 0 0 0 0.894118 0 0 0 0 0.980392 0 0 0 0.5 0"/><feBlend in2="BackgroundImageFix" mode="normal" result="effect1_dropShadow_3504_3540"/><feColorMatrix in="SourceAlpha" result="hardAlpha" type="matrix" values="0 0 0 0 0 0 0 0 0 0 0 0 0 0 0 0 0 0 127 0"/><feOffset dy="13.0303"/><feGaussianBlur stdDeviation="14.6591"/><feColorMatrix type="matrix" values="0 0 0 0 0.0980392 0 0 0 0 0.266667 0 0 0 0 0.513726 0 0 0 0.1 0"/><feBlend in2="effect1_dropShadow_3504_3540" mode="normal" result="effect2_dropShadow_3504_3540"/><feColorMatrix in="SourceAlpha" result="hardAlpha" type="matrix" values="0 0 0 0 0 0 0 0 0 0 0 0 0 0 0 0 0 0 127 0"/><feOffset dy="54.2929"/><feGaussianBlur stdDeviation="27.1465"/><feColorMatrix type="matrix" values="0 0 0 0 0.0980392 0 0 0 0 0.266667 0 0 0 0 0.513726 0 0 0 0.09 0"/><feBlend in2="effect2_dropShadow_3504_3540" mode="normal" result="effect3_dropShadow_3504_3540"/><feColorMatrix in="SourceAlpha" result="hardAlpha" type="matrix" values="0 0 0 0 0 0 0 0 0 0 0 0 0 0 0 0 0 0 127 0"/><feOffset dy="120.53"/><feGaussianBlur stdDeviation="36.3763"/><feColorMatrix type="matrix" values="0 0 0 0 0.0980392 0 0 0 0 0.266667 0 0 0 0 0.513726 0 0 0 0.05 0"/><feBlend in2="effect3_dropShadow_3504_3540" mode="normal" result="effect4_dropShadow_3504_3540"/><feColorMatrix in="SourceAlpha" result="hardAlpha" type="matrix" values="0 0 0 0 0 0 0 0 0 0 0 0 0 0 0 0 0 0 127 0"/><feOffset dy="215"/><feGaussianBlur stdDeviation="42.8914"/><feColorMatrix type="matrix" values="0 0 0 0 0.0980392 0 0 0 0 0.266667 0 0 0 0 0.513726 0 0 0 0.01 0"/><feBlend in2="effect4_dropShadow_3504_3540" mode="normal" result="effect5_dropShadow_3504_3540"/><feBlend in="SourceGraphic" in2="effect5_dropShadow_3504_3540" mode="normal" result="shape"/></filter><filter id="b" color-interpolation-filters="sRGB" filterUnits="userSpaceOnUse" height="355.362" width="209.857" x="203.217" y="187.712"><feFlood flood-opacity="0" result="BackgroundImageFix"/><feColorMatrix in="SourceAlpha" result="hardAlpha" type="matrix" values="0 0 0 0 0 0 0 0 0 0 0 0 0 0 0 0 0 0 127 0"/><feMorphology in="SourceAlpha" operator="dilate" radius="1" result="effect1_dropShadow_3504_3540"/><feOffset/><feColorMatrix type="matrix" values="0 0 0 0 0.835294 0 0 0 0 0.894118 0 0 0 0 0.980392 0 0 0 0.5 0"/><feBlend in2="BackgroundImageFix" mode="normal" result="effect1_dropShadow_3504_3540"/><feColorMatrix in="SourceAlpha" result="hardAlpha" type="matrix" values="0 0 0 0 0 0 0 0 0 0 0 0 0 0 0 0 0 0 127 0"/><feOffset dy="13.0303"/><feGaussianBlur stdDeviation="14.6591"/><feColorMatrix type="matrix" values="0 0 0 0 0.0980392 0 0 0 0 0.266667 0 0 0 0 0.513726 0 0 0 0.1 0"/><feBlend in2="effect1_dropShadow_3504_3540" mode="normal" result="effect2_dropShadow_3504_3540"/><feColorMatrix in="SourceAlpha" result="hardAlpha" type="matrix" values="0 0 0 0 0 0 0 0 0 0 0 0 0 0 0 0 0 0 127 0"/><feOffset dy="54.2929"/><feGaussianBlur stdDeviation="27.1465"/><feColorMatrix type="matrix" values="0 0 0 0 0.0980392 0 0 0 0 0.266667 0 0 0 0 0.513726 0 0 0 0.09 0"/><feBlend in2="effect2_dropShadow_3504_3540" mode="normal" result="effect3_dropShadow_3504_3540"/><feColorMatrix in="SourceAlpha" result="hardAlpha" type="matrix" values="0 0 0 0 0 0 0 0 0 0 0 0 0 0 0 0 0 0 127 0"/><feOffset dy="120.53"/><feGaussianBlur stdDeviation="36.3763"/><feColorMatrix type="matrix" values="0 0 0 0 0.0980392 0 0 0 0 0.266667 0 0 0 0 0.513726 0 0 0 0.05 0"/><feBlend in2="effect3_dropShadow_3504_3540" mode="normal" result="effect4_dropShadow_3504_3540"/><feColorMatrix in="SourceAlpha" result="hardAlpha" type="matrix" values="0 0 0 0 0 0 0 0 0 0 0 0 0 0 0 0 0 0 127 0"/><feOffset dy="215"/><feGaussianBlur stdDeviation="42.8914"/><feColorMatrix type="matrix" values="0 0 0 0 0.0980392 0 0 0 0 0.266667 0 0 0 0 0.513726 0 0 0 0.01 0"/><feBlend in2="effect4_dropShadow_3504_3540" mode="normal" result="effect5_dropShadow_3504_3540"/><feBlend in="SourceGraphic" in2="effect5_dropShadow_3504_3540" mode="normal" result="shape"/></filter><filter id="c" color-interpolation-filters="sRGB" filterUnits="userSpaceOnUse" height="355.362" width="209.857" x="98.2172" y="220.712"><feFlood flood-opacity="0" result="BackgroundImageFix"/><feColorMatrix in="SourceAlpha" result="hardAlpha" type="matrix" values="0 0 0 0 0 0 0 0 0 0 0 0 0 0 0 0 0 0 127 0"/><feMorphology in="SourceAlpha" operator="dilate" radius="1" result="effect1_dropShadow_3504_3540"/><feOffset/><feColorMatrix type="matrix" values="0 0 0 0 0.835294 0 0 0 0 0.894118 0 0 0 0 0.980392 0 0 0 0.5 0"/><feBlend in2="BackgroundImageFix" mode="normal" result="effect1_dropShadow_3504_3540"/><feColorMatrix in="SourceAlpha" result="hardAlpha" type="matrix" values="0 0 0 0 0 0 0 0 0 0 0 0 0 0 0 0 0 0 127 0"/><feOffset dy="13.0303"/><feGaussianBlur stdDeviation="14.6591"/><feColorMatrix type="matrix" values="0 0 0 0 0.0980392 0 0 0 0 0.266667 0 0 0 0 0.513726 0 0 0 0.1 0"/><feBlend in2="effect1_dropShadow_3504_3540" mode="normal" result="effect2_dropShadow_3504_3540"/><feColorMatrix in="SourceAlpha" result="hardAlpha" type="matrix" values="0 0 0 0 0 0 0 0 0 0 0 0 0 0 0 0 0 0 127 0"/><feOffset dy="54.2929"/><feGaussianBlur stdDeviation="27.1465"/><feColorMatrix type="matrix" values="0 0 0 0 0.0980392 0 0 0 0 0.266667 0 0 0 0 0.513726 0 0 0 0.09 0"/><feBlend in2="effect2_dropShadow_3504_3540" mode="normal" result="effect3_dropShadow_3504_3540"/><feColorMatrix in="SourceAlpha" result="hardAlpha" type="matrix" values="0 0 0 0 0 0 0 0 0 0 0 0 0 0 0 0 0 0 127 0"/><feOffset dy="120.53"/><feGaussianBlur stdDeviation="36.3763"/><feColorMatrix type="matrix" values="0 0 0 0 0.0980392 0 0 0 0 0.266667 0 0 0 0 0.513726 0 0 0 0.05 0"/><feBlend in2="effect3_dropShadow_3504_3540" mode="normal" result="effect4_dropShadow_3504_3540"/><feColorMatrix in="SourceAlpha" result="hardAlpha" type="matrix" values="0 0 0 0 0 0 0 0 0 0 0 0 0 0 0 0 0 0 127 0"/><feOffset dy="215"/><feGaussianBlur stdDeviation="42.8914"/><feColorMatrix type="matrix" values="0 0 0 0 0.0980392 0 0 0 0 0.266667 0 0 0 0 0.513726 0 0 0 0.01 0"/><feBlend in2="effect4_dropShadow_3504_3540" mode="normal" result="effect5_dropShadow_3504_3540"/><feBlend in="SourceGraphic" in2="effect5_dropShadow_3504_3540" mode="normal" result="shape"/></filter><filter id="d" color-interpolation-filters="sRGB" filterUnits="userSpaceOnUse" height="355.362" width="209.857" x=".217171" y="93.7121"><feFlood flood-opacity="0" result="BackgroundImageFix"/><feColorMatrix in="SourceAlpha" result="hardAlpha" type="matrix" values="0 0 0 0 0 0 0 0 0 0 0 0 0 0 0 0 0 0 127 0"/><feMorphology in="SourceAlpha" operator="dilate" radius="1" result="effect1_dropShadow_3504_3540"/><feOffset/><feColorMatrix type="matrix" values="0 0 0 0 0.835294 0 0 0 0 0.894118 0 0 0 0 0.980392 0 0 0 0.5 0"/><feBlend in2="BackgroundImageFix" mode="normal" result="effect1_dropShadow_3504_3540"/><feColorMatrix in="SourceAlpha" result="hardAlpha" type="matrix" values="0 0 0 0 0 0 0 0 0 0 0 0 0 0 0 0 0 0 127 0"/><feOffset dy="13.0303"/><feGaussianBlur stdDeviation="14.6591"/><feColorMatrix type="matrix" values="0 0 0 0 0.0980392 0 0 0 0 0.266667 0 0 0 0 0.513726 0 0 0 0.1 0"/><feBlend in2="effect1_dropShadow_3504_3540" mode="normal" result="effect2_dropShadow_3504_3540"/><feColorMatrix in="SourceAlpha" result="hardAlpha" type="matrix" values="0 0 0 0 0 0 0 0 0 0 0 0 0 0 0 0 0 0 127 0"/><feOffset dy="54.2929"/><feGaussianBlur stdDeviation="27.1465"/><feColorMatrix type="matrix" values="0 0 0 0 0.0980392 0 0 0 0 0.266667 0 0 0 0 0.513726 0 0 0 0.09 0"/><feBlend in2="effect2_dropShadow_3504_3540" mode="normal" result="effect3_dropShadow_3504_3540"/><feColorMatrix in="SourceAlpha" result="hardAlpha" type="matrix" values="0 0 0 0 0 0 0 0 0 0 0 0 0 0 0 0 0 0 127 0"/><feOffset dy="120.53"/><feGaussianBlur stdDeviation="36.3763"/><feColorMatrix type="matrix" values="0 0 0 0 0.0980392 0 0 0 0 0.266667 0 0 0 0 0.513726 0 0 0 0.05 0"/><feBlend in2="effect3_dropShadow_3504_3540" mode="normal" result="effect4_dropShadow_3504_3540"/><feColorMatrix in="SourceAlpha" result="hardAlpha" type="matrix" values="0 0 0 0 0 0 0 0 0 0 0 0 0 0 0 0 0 0 127 0"/><feOffset dy="215"/><feGaussianBlur stdDeviation="42.8914"/><feColorMatrix type="matrix" values="0 0 0 0 0.0980392 0 0 0 0 0.266667 0 0 0 0 0.513726 0 0 0 0.01 0"/><feBlend in2="effect4_dropShadow_3504_3540" mode="normal" result="effect5_dropShadow_3504_3540"/><feBlend in="SourceGraphic" in2="effect5_dropShadow_3504_3540" mode="normal" result="shape"/></filter><filter id="e" color-interpolation-filters="sRGB" filterUnits="userSpaceOnUse" height="355.362" width="209.857" x="54.2172" y=".712121"><feFlood flood-opacity="0" result="BackgroundImageFix"/><feColorMatrix in="SourceAlpha" result="hardAlpha" type="matrix" values="0 0 0 0 0 0 0 0 0 0 0 0 0 0 0 0 0 0 127 0"/><feMorphology in="SourceAlpha" operator="dilate" radius="1" result="effect1_dropShadow_3504_3540"/><feOffset/><feColorMatrix type="matrix" values="0 0 0 0 0.835294 0 0 0 0 0.894118 0 0 0 0 0.980392 0 0 0 0.5 0"/><feBlend in2="BackgroundImageFix" mode="normal" result="effect1_dropShadow_3504_3540"/><feColorMatrix in="SourceAlpha" result="hardAlpha" type="matrix" values="0 0 0 0 0 0 0 0 0 0 0 0 0 0 0 0 0 0 127 0"/><feOffset dy="13.0303"/><feGaussianBlur stdDeviation="14.6591"/><feColorMatrix type="matrix" values="0 0 0 0 0.0980392 0 0 0 0 0.266667 0 0 0 0 0.513726 0 0 0 0.1 0"/><feBlend in2="effect1_dropShadow_3504_3540" mode="normal" result="effect2_dropShadow_3504_3540"/><feColorMatrix in="SourceAlpha" result="hardAlpha" type="matrix" values="0 0 0 0 0 0 0 0 0 0 0 0 0 0 0 0 0 0 127 0"/><feOffset dy="54.2929"/><feGaussianBlur stdDeviation="27.1465"/><feColorMatrix type="matrix" values="0 0 0 0 0.0980392 0 0 0 0 0.266667 0 0 0 0 0.513726 0 0 0 0.09 0"/><feBlend in2="effect2_dropShadow_3504_3540" mode="normal" result="effect3_dropShadow_3504_3540"/><feColorMatrix in="SourceAlpha" result="hardAlpha" type="matrix" values="0 0 0 0 0 0 0 0 0 0 0 0 0 0 0 0 0 0 127 0"/><feOffset dy="120.53"/><feGaussianBlur stdDeviation="36.3763"/><feColorMatrix type="matrix" values="0 0 0 0 0.0980392 0 0 0 0 0.266667 0 0 0 0 0.513726 0 0 0 0.05 0"/><feBlend in2="effect3_dropShadow_3504_3540" mode="normal" result="effect4_dropShadow_3504_3540"/><feColorMatrix in="SourceAlpha" result="hardAlpha" type="matrix" values="0 0 0 0 0 0 0 0 0 0 0 0 0 0 0 0 0 0 127 0"/><feOffset dy="215"/><feGaussianBlur stdDeviation="42.8914"/><feColorMatrix type="matrix" values="0 0 0 0 0.0980392 0 0 0 0 0.266667 0 0 0 0 0.513726 0 0 0 0.01 0"/><feBlend in2="effect4_dropShadow_3504_3540" mode="normal" result="effect5_dropShadow_3504_3540"/><feBlend in="SourceGraphic" in2="effect5_dropShadow_3504_3540" mode="normal" result="shape"/></filter><filter id="f" color-interpolation-filters="sRGB" filterUnits="userSpaceOnUse" height="355.362" width="209.857" x="-34.7828" y="214.712"><feFlood flood-opacity="0" result="BackgroundImageFix"/><feColorMatrix in="SourceAlpha" result="hardAlpha" type="matrix" values="0 0 0 0 0 0 0 0 0 0 0 0 0 0 0 0 0 0 127 0"/><feMorphology in="SourceAlpha" operator="dilate" radius="1" result="effect1_dropShadow_3504_3540"/><feOffset/><feColorMatrix type="matrix" values="0 0 0 0 0.835294 0 0 0 0 0.894118 0 0 0 0 0.980392 0 0 0 0.5 0"/><feBlend in2="BackgroundImageFix" mode="normal" result="effect1_dropShadow_3504_3540"/><feColorMatrix in="SourceAlpha" result="hardAlpha" type="matrix" values="0 0 0 0 0 0 0 0 0 0 0 0 0 0 0 0 0 0 127 0"/><feOffset dy="13.0303"/><feGaussianBlur stdDeviation="14.6591"/><feColorMatrix type="matrix" values="0 0 0 0 0.0980392 0 0 0 0 0.266667 0 0 0 0 0.513726 0 0 0 0.1 0"/><feBlend in2="effect1_dropShadow_3504_3540" mode="normal" result="effect2_dropShadow_3504_3540"/><feColorMatrix in="SourceAlpha" result="hardAlpha" type="matrix" values="0 0 0 0 0 0 0 0 0 0 0 0 0 0 0 0 0 0 127 0"/><feOffset dy="54.2929"/><feGaussianBlur stdDeviation="27.1465"/><feColorMatrix type="matrix" values="0 0 0 0 0.0980392 0 0 0 0 0.266667 0 0 0 0 0.513726 0 0 0 0.09 0"/><feBlend in2="effect2_dropShadow_3504_3540" mode="normal" result="effect3_dropShadow_3504_3540"/><feColorMatrix in="SourceAlpha" result="hardAlpha" type="matrix" values="0 0 0 0 0 0 0 0 0 0 0 0 0 0 0 0 0 0 127 0"/><feOffset dy="120.53"/><feGaussianBlur stdDeviation="36.3763"/><feColorMatrix type="matrix" values="0 0 0 0 0.0980392 0 0 0 0 0.266667 0 0 0 0 0.513726 0 0 0 0.05 0"/><feBlend in2="effect3_dropShadow_3504_3540" mode="normal" result="effect4_dropShadow_3504_3540"/><feColorMatrix in="SourceAlpha" result="hardAlpha" type="matrix" values="0 0 0 0 0 0 0 0 0 0 0 0 0 0 0 0 0 0 127 0"/><feOffset dy="215"/><feGaussianBlur stdDeviation="42.8914"/><feColorMatrix type="matrix" values="0 0 0 0 0.0980392 0 0 0 0 0.266667 0 0 0 0 0.513726 0 0 0 0.01 0"/><feBlend in2="effect4_dropShadow_3504_3540" mode="normal" result="effect5_dropShadow_3504_3540"/><feBlend in="SourceGraphic" in2="effect5_dropShadow_3504_3540" mode="normal" result="shape"/></filter><filter id="g" color-interpolation-filters="sRGB" filterUnits="userSpaceOnUse" height="151.645" width="114.645" x="125.711" y="124.325"><feFlood flood-opacity="0" result="BackgroundImageFix"/><feColorMatrix in="SourceAlpha" result="hardAlpha" type="matrix" values="0 0 0 0 0 0 0 0 0 0 0 0 0 0 0 0 0 0 127 0"/><feOffset dy="2"/><feGaussianBlur stdDeviation="2"/><feColorMatrix type="matrix" values="0 0 0 0 0.211765 0 0 0 0 0.466667 0 0 0 0 0.85098 0 0 0 0.29 0"/><feBlend in2="BackgroundImageFix" mode="normal" result="effect1_dropShadow_3504_3540"/><feColorMatrix in="SourceAlpha" result="hardAlpha" type="matrix" values="0 0 0 0 0 0 0 0 0 0 0 0 0 0 0 0 0 0 127 0"/><feOffset dy="8"/><feGaussianBlur stdDeviation="4"/><feColorMatrix type="matrix" values="0 0 0 0 0.211765 0 0 0 0 0.466667 0 0 0 0 0.85098 0 0 0 0.26 0"/><feBlend in2="effect1_dropShadow_3504_3540" mode="normal" result="effect2_dropShadow_3504_3540"/><feColorMatrix in="SourceAlpha" result="hardAlpha" type="matrix" values="0 0 0 0 0 0 0 0 0 0 0 0 0 0 0 0 0 0 127 0"/><feOffset dy="18"/><feGaussianBlur stdDeviation="5.5"/><feColorMatrix type="matrix" values="0 0 0 0 0.211765 0 0 0 0 0.466667 0 0 0 0 0.85098 0 0 0 0.15 0"/><feBlend in2="effect2_dropShadow_3504_3540" mode="normal" result="effect3_dropShadow_3504_3540"/><feColorMatrix in="SourceAlpha" result="hardAlpha" type="matrix" values="0 0 0 0 0 0 0 0 0 0 0 0 0 0 0 0 0 0 127 0"/><feOffset dy="31"/><feGaussianBlur stdDeviation="6.5"/><feColorMatrix type="matrix" values="0 0 0 0 0.211765 0 0 0 0 0.466667 0 0 0 0 0.85098 0 0 0 0.04 0"/><feBlend in2="effect3_dropShadow_3504_3540" mode="normal" result="effect4_dropShadow_3504_3540"/><feColorMatrix in="SourceAlpha" result="hardAlpha" type="matrix" values="0 0 0 0 0 0 0 0 0 0 0 0 0 0 0 0 0 0 127 0"/><feOffset dy="49"/><feGaussianBlur stdDeviation="7"/><feColorMatrix type="matrix" values="0 0 0 0 0.211765 0 0 0 0 0.466667 0 0 0 0 0.85098 0 0 0 0.01 0"/><feBlend in2="effect4_dropShadow_3504_3540" mode="normal" result="effect5_dropShadow_3504_3540"/><feBlend in="SourceGraphic" in2="effect5_dropShadow_3504_3540" mode="normal" result="shape"/></filter><linearGradient id="h" gradientUnits="userSpaceOnUse" x1="183.033" x2="183.033" y1="126.325" y2="212.97"><stop offset="0" stop-color="#fff"/><stop offset="1" stop-color="#fff" stop-opacity="0"/></linearGradient><clipPath id="i"><path d="m235.572 95.5725h19.1455v19.1455h-19.1455z"/></clipPath><circle cx="183" cy="170" r="89.43" stroke="#d5e4fa" stroke-width="1.14006"/><circle cx="183" cy="170" r="137.43" stroke="#d5e4fa" stroke-width="1.14006"/><g filter="url(#a)"><circle cx="245.145" cy="105.145" fill="#fff" r="19.1455"/></g><g clip-path="url(#i)" fill="#61c554"><path d="m253.52 104.547c-.159 0-.311-.063-.423-.175s-.175-.265-.175-.423c-.002-1.745-.696-3.418-1.93-4.6516-1.234-1.2338-2.907-1.9279-4.652-1.9299-.158 0-.31-.063-.423-.1752-.112-.1122-.175-.2644-.175-.4231s.063-.3109.175-.4231c.113-.1122.265-.1752.423-.1752 2.063.0024 4.04.8226 5.498 2.2807s2.278 3.4354 2.28 5.4974c0 .158-.063.311-.175.423s-.264.175-.423.175z"/><path d="m249.93 104.547c-.158 0-.311-.063-.423-.176-.112-.112-.175-.264-.175-.423-.001-.793-.316-1.553-.877-2.114s-1.321-.876-2.115-.877c-.158 0-.31-.063-.423-.175-.112-.113-.175-.265-.175-.423 0-.159.063-.311.175-.4235.113-.1122.265-.1752.423-.1752 1.111.0012 2.175.4427 2.961 1.2277.785.785 1.226 1.85 1.228 2.96 0 .159-.063.311-.176.423-.112.113-.264.176-.423.176z"/><path d="m248.152 107.256-1.462 1.829c-2.266-1.332-4.154-3.22-5.486-5.485l1.829-1.463c.215-.172.366-.409.431-.676s.04-.547-.072-.798l-1.667-3.7532c-.119-.2694-.33-.4875-.595-.6155-.266-.128-.568-.1576-.853-.0833l-3.171.8232c-.296.0768-.554.2598-.725.5142-.17.2545-.241.5627-.199.8661.557 3.9655 2.389 7.6415 5.22 10.4725 2.832 2.831 6.508 4.664 10.473 5.221.303.042.611-.029.865-.199s.438-.428.515-.724l.823-3.171c.074-.285.044-.586-.084-.851s-.345-.477-.614-.596l-3.753-1.669c-.251-.111-.532-.137-.798-.072-.267.065-.505.216-.677.43z"/></g><g filter="url(#b)"><circle cx="308.145" cy="223.145" fill="#fff" r="19.1455"/></g><path d="m317.631 215.142c-.016-.077-.053-.148-.106-.206-.054-.058-.121-.101-.197-.124-.273-.054-.556-.034-.819.058 0 0-18.165 6.679-19.283 7.282-.259.14-.299.247-.337.354-.181.517.382.745.382.745l4.701 1.532 2.244 6.101s.246.592.592.592c.148 0 .482-.155.959-.634 1.014-1.013 1.986-1.853 2.472-2.263 1.616 1.117 3.356 2.351 4.107 2.997.126.122.275.217.438.28s.337.093.512.087c.713-.027.912-.809.912-.809s3.324-13.379 3.435-15.171c.011-.176.026-.288.028-.407.005-.14-.008-.279-.04-.414zm-14.861 9.273c2.349-1.482 10.256-6.462 10.759-6.647.091-.026.154.004.136.064-.223.786-8.61 8.243-8.64 8.268-.02.018-.035.04-.046.064-.01.025-.015.051-.015.078l-.326 3.351z" fill="#26a5e4"/><g filter="url(#c)"><circle cx="203.145" cy="256.145" fill="#fff" r="19.1455"/></g><path d="m193.049 247 7.722 9.928-7.771 8.072h1.749l6.803-7.067 5.497 7.067h5.951l-8.156-10.487 7.233-7.513h-1.749l-6.266 6.509-5.062-6.509zm2.572 1.239h2.734l12.073 15.522h-2.734z" fill="#152237"/><g filter="url(#d)"><circle cx="105.145" cy="129.145" fill="#fff" r="19.1455"/></g><path d="m94.9424 139.195 1.4209-5.236c-.8765-1.532-1.3377-3.27-1.3369-5.051.0022-5.571 4.4953-10.103 10.0156-10.103 2.68.001 5.194 1.053 7.085 2.963s2.932 4.448 2.931 7.148c-.002 5.571-4.496 10.104-10.016 10.104h-.004c-1.676-.001-3.323-.425-4.786-1.23z" fill="#3ac34c"/><path clip-rule="evenodd" d="m102.542 124.684c-.203-.492-.409-.426-.563-.433-.146-.008-.313-.009-.48-.009s-.438.063-.667.316c-.229.252-.8759.863-.8759 2.106 0 1.242.8969 2.443 1.0219 2.611.125.169 1.765 2.719 4.275 3.812.597.261 1.063.416 1.427.532.599.192 1.145.165 1.576.1.481-.072 1.481-.611 1.689-1.2.209-.59.209-1.095.146-1.201-.062-.105-.229-.168-.479-.295-.251-.126-1.481-.737-1.71-.821-.23-.084-.397-.126-.564.126-.166.253-.646.822-.792.99-.146.169-.292.19-.542.063-.25-.126-1.057-.392-2.013-1.253-.744-.669-1.246-1.496-1.392-1.749-.146-.252-.015-.389.11-.515.112-.113.25-.295.375-.442s.167-.253.25-.421c.084-.169.042-.316-.02-.443-.063-.126-.563-1.369-.772-1.874z" fill="#fff" fill-rule="evenodd"/><g filter="url(#e)"><circle cx="159.145" cy="36.1455" fill="#fff" r="19.1455"/></g><path d="m159.251 25.4861c-5.937 0-10.749 4.5003-10.749 10.0513 0 3.158 1.558 5.9757 3.993 7.8185v3.847l3.668-2.0346c.978.2738 2.015.4208 3.088.4208 5.936 0 10.749-4.5004 10.749-10.0517 0-5.5514-4.813-10.0513-10.749-10.0513zm1.132 13.4789-2.78-2.8883-5.354 2.9611 5.87-6.2291 2.78 2.8884 5.354-2.9608z" fill="#0086ff"/><path d="m160.383 38.9652-2.78-2.8883-5.354 2.9612 5.87-6.2291 2.78 2.8883 5.354-2.9607z" fill="#fff"/><g filter="url(#f)"><circle cx="70.1455" cy="250.145" fill="#fff" r="19.1455"/></g><path d="m60.3668 258.883h3.5309v-8.81l-5.0442-3.886v11.141c0 .86.6785 1.555 1.5133 1.555z" fill="#4285f4"/><path d="m76.0039 258.883h3.5309c.8375 0 1.5133-.697 1.5133-1.555v-11.141l-5.0442 3.886" fill="#34a853"/><path d="m76.0039 243.337v6.736l5.0442-3.886v-2.073c0-1.923-2.1362-3.019-3.6318-1.866" fill="#fbbc04"/><path d="m63.8965 250.073v-6.737l6.053 4.664 6.053-4.664v6.737l-6.053 4.664" fill="#ea4335"/><path d="m58.8535 244.114v2.073l5.0442 3.886v-6.736l-1.4124-1.089c-1.4981-1.153-3.6318-.057-3.6318 1.866z" fill="#c5221f"/><g filter="url(#g)"><circle cx="183.033" cy="169.648" fill="#1972f5" r="43.3224"/><circle cx="183.033" cy="169.648" fill="url(#h)" fill-opacity=".16" r="43.3224"/><circle cx="183.033" cy="169.648" r="42.7523" stroke="url(#h)" stroke-opacity=".2" stroke-width="1.14006"/></g><path clip-rule="evenodd" d="m178.966 180.391-13.135 1.47-2.059-22.744 36.872-4.127 2.059 22.744-12.76 1.428-4.809 7.872z" fill="#fff" fill-rule="evenodd"/></svg>